<svg width="1254" height="1254" viewBox="0 0 1254 1254" fill="none" xmlns="http://www.w3.org/2000/svg">
<g clip-path="url(#clip0_4_17)">
<circle cx="634.33" cy="602.41" r="480" fill="white"/>
<path d="M634.33 1076.91C896.389 1076.91 1108.83 864.469 1108.83 602.41C1108.83 340.351 896.389 127.91 634.33 127.91C372.271 127.91 159.83 340.351 159.83 602.41C159.83 864.469 372.271 1076.91 634.33 1076.91Z" stroke="#FCCA09" stroke-width="123"/>
<path d="M961.42 92.27C965 111.5 842.13 148.33 779.19 177.76C716.25 207.2 654.4 240.76 597.86 281C541.31 321.25 482.41 366.43 453.35 428.92C424.29 491.42 493.41 543.76 562.99 544.14C632.57 544.52 702.31 538.68 771.72 539.13C841.13 539.59 913.04 539.35 979.23 558.8C1045.43 578.26 1088.51 648.86 1071.68 716.2C1054.86 783.53 1010.25 841.43 960.91 890.44C911.56 939.44 854.71 980.51 794.25 1015.25C733.79 1050 669.88 1077.98 604.61 1102.11C539.34 1126.24 415 1165 403.81 1143.67C392.679 1122.45 505.49 1066.57 565.18 1032.95C624.87 999.32 684.04 964.3 737.45 921.49C790.85 878.68 853.24 801.17 805.33 752.86C757.42 704.56 678.96 704.76 610.8 700.23C542.63 695.69 473.78 698.55 405.44 695.72C337.11 692.89 258.62 677.49 225.96 617.2C193.3 556.91 214.42 480.77 247.8 421.35C281.18 361.93 330.81 312.72 386.35 272.14C441.89 231.55 502.62 199.73 565.83 173.62C629.04 147.5 694.63 126.42 761.03 110.04C827.44 93.65 949 68 961.42 92.27Z" fill="#0455A3"/>
</g>
<defs>
<clipPath id="clip0_4_17">
<rect width="1254" height="1254" fill="white"/>
</clipPath>
</defs>
</svg>
